<?xml version="1.0" ?><svg viewBox="0 0 32 32" xmlns="http://www.w3.org/2000/svg"><defs><style>.cls-1{fill:none;stroke:#000;stroke-linecap:round;stroke-linejoin:round;stroke-width:2px;}</style></defs><title/><g data-name="25-chain" id="_25-chain"><path class="cls-1" d="M14.24,21.73a2.05,2.05,0,0,1-2.81,0L1.58,12.29a1.85,1.85,0,0,1,0-2.69l4.22-4a2.05,2.05,0,0,1,2.81,0L18.46,15a1.85,1.85,0,0,1,0,2.69"/><path class="cls-1" d="M17.76,10.27a2.05,2.05,0,0,1,2.81,0l9.85,9.43a1.85,1.85,0,0,1,0,2.69l-4.22,4a2.05,2.05,0,0,1-2.81,0L13.54,17a1.85,1.85,0,0,1,0-2.69"/></g></svg>